<svg xmlns="http://www.w3.org/2000/svg" version="1.1" xmlns:xlink="http://www.w3.org/1999/xlink" xmlns:svgjs="http://svgjs.com/svgjs" width="300" height="300" preserveAspectRatio="none" viewBox="0 0 300 300"><g mask="url(&quot;#SvgjsMask1242&quot;)" fill="none"><path d="M59.67 17.69 a64.91 64.91 0 1 0 129.82 0 a64.91 64.91 0 1 0 -129.82 0z" fill="rgba(101, 199, 6, 0.4)" class="triangle-float3"></path><path d="M151.055,145.327C168.235,145.383,180.206,129.828,187.959,114.497C194.86,100.85,195.553,85.151,188.289,71.694C180.624,57.495,167.18,46.737,151.055,46.131C133.901,45.486,116.743,53.569,108.638,68.701C100.889,83.169,106.616,99.898,114.565,114.258C122.857,129.238,133.933,145.271,151.055,145.327" fill="rgba(101, 199, 6, 0.4)" class="triangle-float3"></path><path d="M310.7487851834561 292.7638569768827L293.9409726468251 234.14804876726564 235.32516443720803 250.95586130389663 252.13297697383902 309.5716695135137z" fill="rgba(101, 199, 6, 0.4)" class="triangle-float3"></path><path d="M88.56309363771743 350.3408921271851L114.2248916014122 275.8136193403035 39.69761881453058 250.1518213766087 14.035820850835805 324.67909416349033z" fill="rgba(101, 199, 6, 0.4)" class="triangle-float1"></path><path d="M126.619,378.69C152.688,378.083,176.68,365.933,190.863,344.051C206.527,319.883,215.128,289.114,200.911,264.068C186.56,238.786,155.688,230.565,126.619,230.871C98.18,231.17,69.6,241.204,54.988,265.604C40.012,290.612,41.377,322.544,56.975,347.169C71.589,370.241,99.315,379.326,126.619,378.69" fill="rgba(101, 199, 6, 0.4)" class="triangle-float2"></path><path d="M42.861124375829604 318.3978099224787L53.698694157217034 271.45513787852803 6.756022113266354 260.6175680971406-4.081547668121075 307.56024014109124z" fill="rgba(101, 199, 6, 0.4)" class="triangle-float2"></path><path d="M231.3484914077777 166.81927659089692L201.65605396619378 240.31063814844705 275.1474155237439 270.00307559003096 304.83985296532785 196.51171403248082z" fill="rgba(101, 199, 6, 0.4)" class="triangle-float3"></path><path d="M-5.98 2.46 a65.55 65.55 0 1 0 131.1 0 a65.55 65.55 0 1 0 -131.1 0z" fill="rgba(101, 199, 6, 0.4)" class="triangle-float2"></path><path d="M222.30536964625952 294.2452918367636L270.14475740235054 313.57365911812167 275.2176144463421 232.15039384330612z" fill="rgba(101, 199, 6, 0.4)" class="triangle-float2"></path><path d="M25.357,118.095C46.78,117.596,61.645,98.54,71.116,79.317C79.381,62.542,78.991,43.51,70.247,26.98C60.823,9.164,45.501,-6.532,25.357,-7.19C4.254,-7.88,-14.617,5.441,-24.921,23.87C-34.976,41.854,-33.949,63.36,-24.249,81.538C-13.885,100.961,3.348,118.608,25.357,118.095" fill="rgba(101, 199, 6, 0.4)" class="triangle-float3"></path><path d="M217.43466593778714-10.328776756355472L182.24896737888258 24.856921802549095 217.43466593778714 60.042620361453665 252.6203644966917 24.856921802549095z" fill="rgba(101, 199, 6, 0.4)" class="triangle-float2"></path><path d="M123.624,200.249C146.324,200.519,167.298,187.517,178.114,167.557C188.462,148.461,185.245,125.598,174.214,106.889C163.376,88.507,144.962,75.389,123.624,75.136C101.864,74.878,81.742,86.788,70.913,105.664C60.135,124.451,60.789,147.369,71.333,166.288C82.177,185.746,101.35,199.984,123.624,200.249" fill="rgba(101, 199, 6, 0.4)" class="triangle-float3"></path><path d="M51.493157614402215 265.2661993401082L0.4486471156180727 232.04830157079007-3.265001439754407 285.15595015589224z" fill="rgba(101, 199, 6, 0.4)" class="triangle-float2"></path><path d="M121.30811633975557 182.5788594753871L59.66229728462896 134.41586711338277 11.499304922624646 196.0616861685094 73.14512397775125 244.2246785305137z" fill="rgba(101, 199, 6, 0.4)" class="triangle-float2"></path><path d="M65.8 184.26 a85.4 85.4 0 1 0 170.8 0 a85.4 85.4 0 1 0 -170.8 0z" fill="rgba(101, 199, 6, 0.4)" class="triangle-float1"></path><path d="M217.15 171.78 a65.71 65.71 0 1 0 131.42 0 a65.71 65.71 0 1 0 -131.42 0z" fill="rgba(101, 199, 6, 0.4)" class="triangle-float1"></path><path d="M120.39 175.14 a53.54 53.54 0 1 0 107.08 0 a53.54 53.54 0 1 0 -107.08 0z" fill="rgba(101, 199, 6, 0.4)" class="triangle-float3"></path></g><defs><mask id="SvgjsMask1242"><rect width="300" height="300" fill="#ffffff"></rect></mask></defs></svg>