<?xml version="1.0" encoding="UTF-8"?>
<svg preserveAspectRatio="none" version="1.1" viewBox="0 0 300 300" xmlns="http://www.w3.org/2000/svg">
<g fill="rgba(101, 199, 6, 0.4)" mask="url(#a)">
<path class="triangle-float3" d="m59.67 17.69a64.91 64.91 0 1 0 129.82 0 64.91 64.91 0 1 0-129.82 0z"/>
<path class="triangle-float3" d="m151.06 145.33c17.18 0.056 29.151-15.499 36.904-30.83 6.901-13.647 7.594-29.346 0.33-42.803-7.665-14.199-21.109-24.957-37.234-25.563-17.154-0.645-34.312 7.438-42.417 22.57-7.749 14.468-2.022 31.197 5.927 45.557 8.292 14.98 19.368 31.013 36.49 31.069"/>
<path class="triangle-float3" d="m310.75 292.76-16.808-58.616-58.616 16.808 16.808 58.616z"/>
<path class="triangle-float1" d="m88.563 350.34 25.662-74.527-74.527-25.662-25.662 74.527z"/>
<path class="triangle-float2" d="m126.62 378.69c26.069-0.607 50.061-12.757 64.244-34.639 15.664-24.168 24.265-54.937 10.048-79.983-14.351-25.282-45.223-33.503-74.292-33.197-28.439 0.299-57.019 10.333-71.631 34.733-14.976 25.008-13.611 56.94 1.987 81.565 14.614 23.072 42.34 32.157 69.644 31.521"/>
<path class="triangle-float2" d="m42.861 318.4 10.838-46.943-46.943-10.838-10.838 46.943z"/>
<path class="triangle-float3" d="m231.35 166.82-29.692 73.491 73.491 29.692 29.692-73.491z"/>
<path class="triangle-float2" d="m-5.98 2.46a65.55 65.55 0 1 0 131.1 0 65.55 65.55 0 1 0-131.1 0z"/>
<path class="triangle-float2" d="m222.31 294.25 47.839 19.328 5.0729-81.423z"/>
<path class="triangle-float3" d="m25.357 118.1c21.423-0.499 36.288-19.555 45.759-38.778 8.265-16.775 7.875-35.807-0.869-52.337-9.424-17.816-24.746-33.512-44.89-34.17-21.103-0.69-39.974 12.631-50.278 31.06-10.055 17.984-9.028 39.49 0.672 57.668 10.364 19.423 27.597 37.07 49.606 36.557"/>
<path class="triangle-float2" d="m217.43-10.329-35.186 35.186 35.186 35.186 35.186-35.186z"/>
<path class="triangle-float3" d="m123.62 200.25c22.7 0.27 43.674-12.732 54.49-32.692 10.348-19.096 7.131-41.959-3.9-60.668-10.838-18.382-29.252-31.5-50.59-31.753-21.76-0.258-41.882 11.652-52.711 30.528-10.778 18.787-10.124 41.705 0.42 60.624 10.844 19.458 30.017 33.696 52.291 33.961"/>
<path class="triangle-float2" d="m51.493 265.27-51.045-33.218-3.7136 53.108z"/>
<path class="triangle-float2" d="m121.31 182.58-61.646-48.163-48.163 61.646 61.646 48.163z"/>
<path class="triangle-float1" d="m65.8 184.26a85.4 85.4 0 1 0 170.8 0 85.4 85.4 0 1 0-170.8 0z"/>
<path class="triangle-float1" d="m217.15 171.78a65.71 65.71 0 1 0 131.42 0 65.71 65.71 0 1 0-131.42 0z"/>
<path class="triangle-float3" d="m120.39 175.14a53.54 53.54 0 1 0 107.08 0 53.54 53.54 0 1 0-107.08 0z"/>
</g>
<defs>
<mask id="a">
<rect width="300" height="300" fill="#fff"/>
</mask>
</defs>
</svg>
